<svg xmlns="http://www.w3.org/2000/svg" width="209" height="54" viewBox="0 0 209 54">
<style type="text/css">
	.st0{fill:url(#SVGID_1_);}
	.st1{fill:#FFFFFF;}
	.st2{
		font-family:'Inter';
		font-weight: 200;
	}
	.st3{font-size:30px;}
	.st4{fill:url(#SVGID_2_);}
</style>
<linearGradient id="SVGID_1_" gradientUnits="userSpaceOnUse" x1="28.25" y1="557.4291" x2="28.25" y2="518.3704" gradientTransform="matrix(1 0 0 1 0 -510.9291)">
	<stop  offset="0" style="stop-color:#2584FF"/>
	<stop  offset="1" style="stop-color:#0033CC"/>
</linearGradient>
<path class="st0" d="M43.6,26.6L31,9.9l0,0c-0.6-0.8-1.4-1.4-2.2-1.8c-0.9-0.4-1.8-0.6-2.7-0.6c-1.3,0-2.5,0.4-3.6,1.1
	s-1.9,1.9-2.3,3.2L12,38.5l0,0c-0.2,0.6-0.3,1.2-0.3,1.8c0,1.7,0.7,3.3,1.8,4.4c1.1,1.1,2.6,1.8,4.3,1.8c0.9,0,1.8-0.2,2.7-0.6l0,0
	l20.8-10.1l0,0c1.1-0.5,2-1.4,2.6-2.3c0.6-1,0.9-2.1,0.9-3.2C44.8,29,44.4,27.7,43.6,26.6z M38.8,30.4L38.8,30.4L17.9,40.5l0,0h-0.1
	l-0.1-0.1v-0.1v-0.1l0,0L26,13.6v-0.1h0.1h0.1l0.1,0.1L38.8,30.4L38.8,30.4L38.8,30.4z"/>
<text id="Moncher" transform="matrix(1 0 0 1 67.439 35.4427)" class="st1 st2 st3">Moncher</text>
<linearGradient id="SVGID_2_" gradientUnits="userSpaceOnUse" x1="43.3196" y1="557.4291" x2="43.3196" y2="518.3704" gradientTransform="matrix(1 0 0 1 0 -510.9291)">
	<stop  offset="0" style="stop-color:#FF3400"/>
	<stop  offset="1" style="stop-color:#990000"/>
</linearGradient>
<path class="st4" d="M59.6,38.6L59.6,38.6l-8.3-26.7C50.9,10.5,50,9.3,49,8.6c-1.1-0.7-2.3-1.1-3.6-1.1c-0.9,0-1.8,0.2-2.7,0.6
	s-1.6,1-2.2,1.8l0,0l-4.7,6.3l3.8,5l5.8-7.7l0.1-0.1h0.1h0.1v0.1L54,40.2v0.1v0.1l-0.1,0.1h-0.1l-21-10.1l-0.1-0.1v-0.1v-0.1l3-4
	l-3.8-5L28,26.6c-0.8,1.1-1.2,2.4-1.2,3.7c0,1.1,0.3,2.2,0.9,3.2s1.5,1.8,2.6,2.3l0,0L51,45.9l0,0c0.9,0.4,1.8,0.6,2.7,0.6
	c1.7,0,3.2-0.7,4.3-1.8s1.8-2.6,1.8-4.4C59.9,39.8,59.8,39.2,59.6,38.6z"/>
</svg>
