<?xml version="1.0" encoding="UTF-8" standalone="no"?>
<svg
   xmlns:dc="http://purl.org/dc/elements/1.1/"
   xmlns:cc="http://creativecommons.org/ns#"
   xmlns:rdf="http://www.w3.org/1999/02/22-rdf-syntax-ns#"
   xmlns:svg="http://www.w3.org/2000/svg"
   xmlns="http://www.w3.org/2000/svg"
   xmlns:sodipodi="http://sodipodi.sourceforge.net/DTD/sodipodi-0.dtd"
   xmlns:inkscape="http://www.inkscape.org/namespaces/inkscape"
   version="1.1"
   id="svg2"
   xml:space="preserve"
   width="278.66666"
   height="72"
   viewBox="0 0 278.66666 72"
   sodipodi:docname="logo-1.ai"><metadata
     id="metadata8"><rdf:RDF><cc:Work
         rdf:about=""><dc:format>image/svg+xml</dc:format><dc:type
           rdf:resource="http://purl.org/dc/dcmitype/StillImage" /></cc:Work></rdf:RDF></metadata><defs
     id="defs6"><linearGradient
       x1="0"
       y1="0"
       x2="1"
       y2="0"
       gradientUnits="userSpaceOnUse"
       gradientTransform="matrix(0,39.058655,-39.058655,0,28.25,7.5000043)"
       spreadMethod="pad"
       id="linearGradient28"><stop
         style="stop-opacity:1;stop-color:#2584ff"
         offset="0"
         id="stop24" /><stop
         style="stop-opacity:1;stop-color:#0033cc"
         offset="1"
         id="stop26" /></linearGradient><clipPath
       clipPathUnits="userSpaceOnUse"
       id="clipPath38"><path
         d="M 0,54 H 209 V 0 H 0 Z"
         id="path36" /></clipPath><linearGradient
       x1="0"
       y1="0"
       x2="1"
       y2="0"
       gradientUnits="userSpaceOnUse"
       gradientTransform="matrix(0,39.058655,-39.058655,0,43.319614,7.5000043)"
       spreadMethod="pad"
       id="linearGradient84"><stop
         style="stop-opacity:1;stop-color:#ff3400"
         offset="0"
         id="stop80" /><stop
         style="stop-opacity:1;stop-color:#990000"
         offset="1"
         id="stop82" /></linearGradient></defs><sodipodi:namedview
     pagecolor="#ffffff"
     bordercolor="#666666"
     borderopacity="1"
     objecttolerance="10"
     gridtolerance="10"
     guidetolerance="10"
     inkscape:pageopacity="0"
     inkscape:pageshadow="2"
     inkscape:window-width="640"
     inkscape:window-height="480"
     id="namedview4" /><g
     id="g10"
     inkscape:groupmode="layer"
     inkscape:label="logo-1"
     transform="matrix(1.3333333,0,0,-1.3333333,0,72)"><g
       id="g12"><g
         id="g14"><g
           id="g20"><g
             id="g22"><path
               d="m 22.5,45.4 c -1.1,-0.701 -1.9,-1.9 -2.299,-3.2 v 0 L 12,15.5 c -0.2,-0.6 -0.3,-1.2 -0.3,-1.8 v 0 c 0,-1.7 0.7,-3.3 1.8,-4.399 v 0 C 14.6,8.2 16.1,7.5 17.8,7.5 v 0 c 0.9,0 1.8,0.199 2.7,0.6 v 0 l 20.8,10.1 c 1.1,0.5 2,1.4 2.6,2.299 v 0 c 0.6,1 0.9,2.101 0.9,3.201 v 0 c 0,1.299 -0.4,2.6 -1.2,3.7 v 0 L 31,44.1 c -0.6,0.8 -1.4,1.4 -2.2,1.8 v 0 c -0.9,0.4 -1.8,0.6 -2.7,0.6 v 0 c -1.301,0 -2.5,-0.4 -3.6,-1.1 M 17.7,13.6 v 0.1 0.101 L 26,40.4 v 0.1 h 0.1 0.1 L 26.3,40.4 38.8,23.6 17.9,13.5 h -0.1 z"
               style="fill:url(#linearGradient28);stroke:none"
               id="path30" /></g></g></g></g><g
       id="g32"><g
         id="g34"
         clip-path="url(#clipPath38)"><g
           id="g40"
           transform="translate(69.5908,40.3755)"><path
             d="m 0,0 h 4.837 l 6.477,-15.81 H 11.57 L 18.047,0 h 4.837 v -21.818 h -3.793 v 14.989 h -0.202 l -6.03,-14.926 H 10.025 L 3.995,-6.797 H 3.793 V -21.818 H 0 Z"
             style="fill:#ffffff;fill-opacity:1;fill-rule:nonzero;stroke:none"
             id="path42" /></g><g
           id="g44"
           transform="translate(103.7671,21.3267)"><path
             d="M 0,0 C 0.866,0 1.591,0.24 2.173,0.72 2.755,1.199 3.191,1.844 3.479,2.653 3.766,3.463 3.91,4.364 3.91,5.359 3.91,6.36 3.766,7.268 3.479,8.081 3.191,8.895 2.755,9.542 2.173,10.025 1.591,10.508 0.866,10.75 0,10.75 -0.888,10.75 -1.625,10.508 -2.21,10.025 -2.796,9.542 -3.233,8.895 -3.521,8.081 -3.809,7.268 -3.953,6.36 -3.953,5.359 -3.953,4.364 -3.809,3.463 -3.521,2.653 -3.233,1.844 -2.796,1.199 -2.21,0.72 -1.625,0.24 -0.888,0 0,0 m -0.021,-3.089 c -1.598,0 -2.983,0.352 -4.155,1.055 -1.172,0.703 -2.079,1.686 -2.722,2.951 -0.643,1.264 -0.964,2.741 -0.964,4.432 0,1.69 0.321,3.171 0.964,4.442 0.643,1.272 1.55,2.259 2.722,2.962 1.172,0.703 2.557,1.055 4.155,1.055 1.598,0 2.982,-0.352 4.154,-1.055 C 5.305,12.05 6.212,11.063 6.856,9.791 7.499,8.52 7.82,7.039 7.82,5.349 7.82,3.658 7.499,2.181 6.856,0.917 6.212,-0.348 5.305,-1.331 4.133,-2.034 2.961,-2.737 1.577,-3.089 -0.021,-3.089"
             style="fill:#ffffff;fill-opacity:1;fill-rule:nonzero;stroke:none"
             id="path46" /></g><g
           id="g48"
           transform="translate(118.7031,28.1451)"><path
             d="M 0,0 V -9.588 H -3.856 V 6.775 h 3.685 V 3.995 H 0.021 C 0.397,4.911 1,5.64 1.827,6.179 2.654,6.719 3.679,6.989 4.9,6.989 6.029,6.989 7.016,6.747 7.856,6.265 8.698,5.781 9.352,5.082 9.817,4.166 10.282,3.249 10.511,2.138 10.504,0.831 V -9.588 H 6.647 V 0.234 C 6.647,1.328 6.365,2.185 5.801,2.802 5.236,3.42 4.457,3.729 3.462,3.729 2.787,3.729 2.189,3.581 1.667,3.287 1.146,2.992 0.736,2.567 0.442,2.014 0.147,1.46 0,0.788 0,0"
             style="fill:#ffffff;fill-opacity:1;fill-rule:nonzero;stroke:none"
             id="path50" /></g><g
           id="g52"
           transform="translate(140.2754,18.2379)"><path
             d="m 0,0 c -1.633,0 -3.034,0.358 -4.202,1.076 -1.169,0.717 -2.068,1.709 -2.695,2.978 -0.629,1.267 -0.944,2.728 -0.944,4.384 0,1.662 0.32,3.129 0.959,4.405 0.64,1.274 1.543,2.268 2.712,2.982 1.168,0.714 2.551,1.071 4.149,1.071 1.328,0 2.505,-0.244 3.532,-0.73 1.026,-0.486 1.844,-1.172 2.456,-2.056 0.61,-0.884 0.958,-1.916 1.044,-3.094 H 3.324 c -0.149,0.788 -0.503,1.446 -1.059,1.975 -0.558,0.53 -1.302,0.794 -2.233,0.794 -0.788,0 -1.48,-0.211 -2.077,-0.634 -0.597,-0.422 -1.06,-1.028 -1.391,-1.816 -0.33,-0.788 -0.495,-1.733 -0.495,-2.834 0,-1.115 0.163,-2.072 0.491,-2.871 0.326,-0.799 0.786,-1.413 1.379,-1.843 0.593,-0.43 1.29,-0.644 2.093,-0.644 0.569,0 1.078,0.108 1.53,0.325 0.45,0.216 0.829,0.53 1.133,0.942 0.306,0.412 0.516,0.913 0.629,1.502 H 7.011 C 6.918,4.755 6.577,3.73 5.987,2.839 5.398,1.947 4.596,1.252 3.58,0.751 2.564,0.25 1.371,0 0,0"
             style="fill:#ffffff;fill-opacity:1;fill-rule:nonzero;stroke:none"
             id="path54" /></g><g
           id="g56"
           transform="translate(154.3164,28.1451)"><path
             d="M 0,0 V -9.588 H -3.856 V 12.23 h 3.771 V 3.995 h 0.192 c 0.383,0.923 0.978,1.653 1.785,2.19 0.805,0.536 1.834,0.804 3.084,0.804 1.135,0 2.127,-0.238 2.972,-0.714 0.845,-0.476 1.5,-1.171 1.965,-2.088 0.466,-0.916 0.698,-2.035 0.698,-3.356 V -9.588 H 6.755 V 0.234 C 6.755,1.335 6.473,2.193 5.908,2.808 5.343,3.422 4.553,3.729 3.537,3.729 2.855,3.729 2.246,3.581 1.71,3.287 1.174,2.992 0.755,2.567 0.453,2.014 0.151,1.46 0,0.788 0,0"
             style="fill:#ffffff;fill-opacity:1;fill-rule:nonzero;stroke:none"
             id="path58" /></g><g
           id="g60"
           transform="translate(176.0928,18.2379)"><path
             d="m 0,0 c -1.641,0 -3.057,0.343 -4.246,1.027 -1.19,0.686 -2.104,1.66 -2.743,2.92 -0.639,1.26 -0.959,2.746 -0.959,4.458 0,1.684 0.321,3.162 0.965,4.438 0.642,1.274 1.543,2.268 2.7,2.982 1.157,0.714 2.517,1.071 4.08,1.071 1.009,0 1.962,-0.162 2.86,-0.485 C 3.556,16.088 4.352,15.589 5.044,14.914 5.736,14.239 6.281,13.382 6.68,12.342 7.077,11.301 7.275,10.063 7.275,8.629 V 7.446 H -6.137 v 2.6 h 9.716 c -0.007,0.738 -0.167,1.397 -0.479,1.976 -0.313,0.579 -0.747,1.036 -1.305,1.369 -0.558,0.334 -1.206,0.501 -1.944,0.501 -0.788,0 -1.482,-0.19 -2.078,-0.57 -0.596,-0.381 -1.06,-0.878 -1.39,-1.492 -0.33,-0.614 -0.499,-1.287 -0.506,-2.018 v -2.27 c 0,-0.951 0.174,-1.767 0.521,-2.444 0.348,-0.679 0.835,-1.198 1.46,-1.556 0.625,-0.358 1.357,-0.538 2.195,-0.538 0.56,0 1.069,0.08 1.523,0.24 0.454,0.159 0.849,0.396 1.183,0.708 0.334,0.313 0.586,0.699 0.757,1.161 l 3.6,-0.404 C 6.889,3.757 6.457,2.928 5.821,2.221 5.186,1.515 4.374,0.968 3.388,0.58 2.4,0.193 1.271,0 0,0"
             style="fill:#ffffff;fill-opacity:1;fill-rule:nonzero;stroke:none"
             id="path62" /></g><g
           id="g64"
           transform="translate(186.6279,18.5572)"><path
             d="M 0,0 V 16.363 H 3.739 V 13.637 H 3.91 c 0.298,0.944 0.812,1.674 1.539,2.188 0.729,0.516 1.562,0.773 2.499,0.773 0.213,0 0.452,-0.009 0.719,-0.027 0.267,-0.017 0.488,-0.044 0.666,-0.08 V 12.944 C 9.169,13.001 8.912,13.052 8.561,13.099 8.209,13.145 7.869,13.168 7.543,13.168 6.84,13.168 6.209,13.017 5.652,12.715 5.095,12.413 4.656,11.996 4.336,11.463 4.017,10.931 3.856,10.316 3.856,9.62 V 0 Z"
             style="fill:#ffffff;fill-opacity:1;fill-rule:nonzero;stroke:none"
             id="path66" /></g></g></g><g
       id="g68"><g
         id="g70"><g
           id="g76"><g
             id="g78"><path
               d="M 42.701,45.9 C 41.8,45.5 41.1,44.9 40.5,44.1 v 0 l -4.7,-6.3 3.8,-5 5.8,7.7 0.1,0.1 h 0.1 0.1 V 40.5 L 54,13.801 V 13.7 13.6 l -0.1,-0.1 h -0.1 l -21,10.1 -0.099,0.1 v 0.101 0.099 l 2.999,4 -3.8,5 -3.9,-5.5 c -0.8,-1.1 -1.2,-2.401 -1.2,-3.7 v 0 c 0,-1.1 0.3,-2.201 0.9,-3.201 v 0 c 0.6,-1 1.501,-1.799 2.599,-2.299 v 0 L 51,8.1 c 0.9,-0.401 1.799,-0.6 2.7,-0.6 v 0 c 1.7,0 3.2,0.7 4.3,1.801 v 0 c 1.1,1.099 1.8,2.599 1.8,4.399 v 0 c 0.1,0.5 0,1.101 -0.2,1.7 v 0 L 51.3,42.1 C 50.9,43.5 50,44.699 49,45.4 v 0 c -1.1,0.7 -2.3,1.1 -3.6,1.1 v 0 c -0.9,0 -1.8,-0.2 -2.699,-0.6"
               style="fill:url(#linearGradient84);stroke:none"
               id="path86" /></g></g></g></g></g></svg>
